inDegrees=no
num_controls=7
num_derivatives=13
num_iterations=133
num_multipliers=7
num_parameters=0
num_slacks=7
num_states=26
objective=6.165594
objective_accelerations=0.407696
objective_balance=0.032760
objective_effort=0.432047
objective_height=5.224458
objective_ligament=0.068633
solver_duration=1161.582551
status=Solve_Succeeded
success=true
DataType=double
version=3
OpenSimVersion=4.4-2022-07-23-0e9fedc
endheader
time	/jointset/ground_pelvis/pelvis_tilt/value	/jointset/ground_pelvis/pelvis_tx/value	/jointset/ground_pelvis/pelvis_ty/value	/jointset/hip_r/hip_flexion_r/value	/jointset/hip_r/hip_adduction_r/value	/jointset/hip_r/hip_rotation_r/value	/jointset/back/lumbar_extension/value	/jointset/patellofemoral_r/patellar_flexion_r/value	/jointset/knee_r/knee_flexion_r/value	/jointset/knee_r/knee_adduction_r/value	/jointset/knee_r/knee_rotation_r/value	/jointset/ankle_r/ankle_angle_r/value	/jointset/subtalar_r/subtalar_angle_r/value	/jointset/ground_pelvis/pelvis_tilt/speed	/jointset/ground_pelvis/pelvis_tx/speed	/jointset/ground_pelvis/pelvis_ty/speed	/jointset/hip_r/hip_flexion_r/speed	/jointset/hip_r/hip_adduction_r/speed	/jointset/hip_r/hip_rotation_r/speed	/jointset/back/lumbar_extension/speed	/jointset/patellofemoral_r/patellar_flexion_r/speed	/jointset/knee_r/knee_flexion_r/speed	/jointset/knee_r/knee_adduction_r/speed	/jointset/knee_r/knee_rotation_r/speed	/jointset/ankle_r/ankle_angle_r/speed	/jointset/subtalar_r/subtalar_angle_r/speed	/forceset/tau_hip_flexion_r	/forceset/tau_hip_adduction_r	/forceset/tau_hip_rotation_r	/forceset/tau_knee_flexion_r	/forceset/tau_ankle_angle_r	/forceset/tau_subtalar_angle_r	/forceset/tau_lumbar_extension	lambda_cid13_p0	lambda_cid14_p0	lambda_cid14_p1	lambda_cid14_p2	lambda_cid14_p3	lambda_cid14_p4	lambda_cid14_p5	/jointset/ground_pelvis/pelvis_tilt/accel	/jointset/ground_pelvis/pelvis_tx/accel	/jointset/ground_pelvis/pelvis_ty/accel	/jointset/hip_r/hip_flexion_r/accel	/jointset/hip_r/hip_adduction_r/accel	/jointset/hip_r/hip_rotation_r/accel	/jointset/back/lumbar_extension/accel	/jointset/patellofemoral_r/patellar_flexion_r/accel	/jointset/knee_r/knee_flexion_r/accel	/jointset/knee_r/knee_adduction_r/accel	/jointset/knee_r/knee_rotation_r/accel	/jointset/ankle_r/ankle_angle_r/accel	/jointset/subtalar_r/subtalar_angle_r/accel	gamma_cid13_p0	gamma_cid14_p0	gamma_cid14_p1	gamma_cid14_p2	gamma_cid14_p3	gamma_cid14_p4	gamma_cid14_p5
0	-0.006516663981581873	0.09626119758053238	0.9427240319417319	0.1762555651711513	-0.2321526769344048	-0.2616405400514065	-0.0385979564078546	0.07317816487763844	0.07317816487761825	0.1745328408963217	0.1745326923316173	0.0324735960626065	-0.003451774387363876	0	0	0	0	0	0	0	0	0	0	0	0	0	0.2221205965719454	-0.1209742457847702	-0.04602226970975334	-0.4145884989238003	0.4322042668482331	-0.18795188597788	-0.116819147657294	-39.07625783507028	87.53527360916813	-56.3175736386432	-1.964615145898597	-42.09454711712316	-680.2678933347084	23.5801290157432	-1.329794358031025	-0.7495686887110871	-0.4861902195890528	7.278492477384996	0.2031170383263246	2.227386935094232	-4.757873808328338	8.373886590435623	8.373886590436262	-2.665891534022987	0.1554124429067012	3.211505123492373	0.9387787990752873	8.141845435548943e-08	4.49327397232841e-08	-5.489231519693194e-07	1.72670384296863e-07	2.850544757111422e-08	1.184750077757843e-08	-2.837705686070774e-07
0.01	-0.006577870009172915	0.09622503581519874	0.9427007350979699	0.176606569479478	-0.2321414495119073	-0.2615215170822497	-0.03883713015654253	0.07358517469556622	0.07358517469555403	0.1743996667300028	0.1745295375392827	0.0326315406290708	-0.003404402918610622	-0.01219802333836528	-0.007126206480042136	-0.004647675617561644	0.0698157687624017	0.002193854713667188	0.02369338652607234	-0.04747556219929662	0.08106709003679345	0.08106709003679301	-0.0264260382285468	-0.000615171781404613	0.03153971376772186	0.009410012797222235	0.21930441815554	-0.1676483252122151	-0.04500447055609149	-0.4129395561695478	0.421053731922961	-0.1433323543653931	-0.1141432673509332	-39.08977816358448	85.66179768626195	-37.50407268816406	-4.693600342890052	-42.73384633297596	-680.7696537385717	61.18877235357581	-1.158324464484663	-0.6782189384506461	-0.4522998931130238	6.775359460905753	0.219721002931637	2.423675316182307	-4.688519295165442	7.922872895020939	7.922872895020564	-2.599708092072293	-0.1675639233930248	3.117838796266046	0.9324037542713584	1.161285634599203e-07	5.362404327966357e-08	-7.781893289380746e-07	2.01413382845069e-07	5.539088624907963e-08	-1.137817746030743e-07	-3.8018873980035e-07
0.02	-0.006759759898696844	0.09612079752290499	0.9426313127659758	0.1776441795524881	-0.2321098432792649	-0.2611688880868749	-0.03954028390110829	0.07479280595077763	0.07479280595078891	0.1740084825564903	0.1745207146419894	0.03310340919178174	-0.003264873075039932	-0.02413677238651308	-0.01361530539202987	-0.009225097646433948	0.1373211529343331	0.00407576202912557	0.04672120524487246	-0.09279599917601038	0.1601242874623758	0.1601242874623751	-0.05160200144917389	-0.001133620951961471	0.06278479924960119	0.01843167496347633	0.2164882397392135	-0.2143224046396416	-0.04398667140220617	-0.4112906134153382	0.4099031969976831	-0.09871282275289144	-0.1114673870444866	-39.12976791058149	83.86290951845744	-18.69348897443616	-7.403869568395267	-43.554054597872	-680.1541374776853	98.58783325250428	-1.277939499987554	-0.6221471751001679	-0.4721395018511879	6.816415559290955	0.1407275586845541	2.094273373639253	-4.3268487638118	7.97190806819351	7.971908068194195	-2.415876532439008	0.1747569650768052	3.152579466323921	0.8611086728816686	1.50838672564351e-07	6.231534683604305e-08	-1.00745550590683e-06	2.30156381393275e-07	8.227632492704503e-08	-2.394110499837271e-07	-4.766069109936228e-07
0.03	-0.007059664585907547	0.09595358026859391	0.9425162503358794	0.1793469038564981	-0.2320608972428977	-0.260591592782671	-0.0406863555941821	0.07678155743081101	0.0767815574308022	0.1733718226519392	0.1745092315866576	0.03388476281949917	-0.003037278386070885	-0.03576371749739832	-0.01984764430276316	-0.01379205290516642	0.2029406109920491	0.005666305364001116	0.06861419767086918	-0.1361369636434468	0.2372727704382444	0.2372727704382398	-0.07551008134317522	-0.001168989404854635	0.09326912821059162	0.02699055471520509	0.2089808428896143	-0.1942156764226526	-0.04202888372738356	-0.4001466764121662	0.3961711774721326	-0.110243448375752	-0.1057901095391381	-39.19526892845932	79.02624395462124	-24.5164917739467	-6.511633701273608	-39.69109744981362	-679.6809635177189	85.57410665967592	-1.092989819264397	-0.6266855099363143	-0.4497216075337633	6.392256268226552	0.1610412062991499	2.218324852094597	-4.295513919132459	7.533302388669979	7.533302388668915	-2.345421118425022	-0.09350700337501758	2.963868507124485	0.838638466066347	1.649478667267031e-07	6.274557520678858e-08	-1.100644634025524e-06	2.142903117956123e-07	9.611359375225516e-08	-3.337833144905664e-07	-4.907106540555849e-07
